<svg xmlns="http://www.w3.org/2000/svg" width="960" height="500"><defs><style type="text/css">.current{fill:#2aa748}.maintenance,.tick text{fill:#89a19d}.unstable{fill:#ffb800}.bar-join,.label{fill:#fff}.bar-join.current,.bar-join.unstable{display:none}.tick text{font:16px sans-serif}.axis--y .tick text{text-anchor:end}.label{font:20px sans-serif;font-weight:100;text-anchor:start;dominant-baseline:middle;text-transform:uppercase}</style></defs><g id="bar-container"><g fill="none" class="axis axis--x" font-family="sans-serif" font-size="10" text-anchor="middle"><g class="tick" opacity="1" transform="translate(110, 30) translate(91.77615571776155,0)"><line x1=".5" x2=".5" y2="440" stroke="#89a19d"/><text x=".5" y="0" fill="#000" dy="-10">Feb 2020</text></g><g class="tick" opacity="1" transform="translate(110, 30) translate(178.56447688564478,0)"><line x1=".5" x2=".5" y2="440" stroke="#89a19d" stroke-dasharray="2 2"/><text x=".5" y="0" fill="#000" dy="-10">Mar 2020</text></g><g class="tick" opacity="1" transform="translate(110, 30) translate(271.338199513382,0)"><line x1=".5" x2=".5" y2="440" stroke="#89a19d"/><text x=".5" y="0" fill="#000" dy="-10">Apr 2020</text></g><g class="tick" opacity="1" transform="translate(110, 30) translate(361.11922141119226,0)"><line x1=".5" x2=".5" y2="440" stroke="#89a19d" stroke-dasharray="2 2"/><text x=".5" y="0" fill="#000" dy="-10">May 2020</text></g><g class="tick" opacity="1" transform="translate(110, 30) translate(453.8929440389295,0)"><line x1=".5" x2=".5" y2="440" stroke="#89a19d"/><text x=".5" y="0" fill="#000" dy="-10">Jun 2020</text></g><g class="tick" opacity="1" transform="translate(110, 30) translate(543.6739659367397,0)"><line x1=".5" x2=".5" y2="440" stroke="#89a19d" stroke-dasharray="2 2"/><text x=".5" y="0" fill="#000" dy="-10">Jul 2020</text></g><g class="tick" opacity="1" transform="translate(110, 30) translate(636.447688564477,0)"><line x1=".5" x2=".5" y2="440" stroke="#89a19d"/><text x=".5" y="0" fill="#000" dy="-10">Aug 2020</text></g><g class="tick" opacity="1" transform="translate(110, 30) translate(729.2214111922141,0)"><line x1=".5" x2=".5" y2="440" stroke="#89a19d" stroke-dasharray="2 2"/><text x=".5" y="0" fill="#000" dy="-10">Sep 2020</text></g><g class="tick" opacity="1" transform="translate(110, 30) translate(819.0024330900243,0)"><line x1=".5" x2=".5" y2="440" stroke="#89a19d"/><text x=".5" y="0" fill="#000" dy="-10">Oct 2020</text></g></g><g fill="none" class="axis axis--y" font-family="sans-serif" font-size="10" text-anchor="start" transform="translate(110, 30)"><g class="tick" opacity="1" transform="translate(0,86.66666666666666)"><line x2="820" y1=".5" y2=".5" stroke="#e1e7e7"/><text x="0" y=".5" fill="#000" dx="-10" dy=".32em">Develop</text></g><g class="tick" opacity="1" transform="translate(0,219.99999999999997)"><line x2="820" y1=".5" y2=".5" stroke="#e1e7e7"/><text x="0" y=".5" fill="#000" dx="-10" dy=".32em">Taro UI 2.3.x</text></g><g class="tick" opacity="1" transform="translate(0,353.33333333333326)"><line x2="820" y1=".5" y2=".5" stroke="#e1e7e7"/><text x="0" y=".5" fill="#000" dx="-10" dy=".32em">Taro UI 3.x</text></g><line x2="820" y1="440" y2="440" stroke="#89a19d"/></g><g transform="translate(110, 30)"><rect width="820" height="93.333" x="0" y="40" class="bar unstable"/><rect width="2" height="93.333" x="-1" y="40" class="bar-join unstable" style="opacity:0"/><text x="15" y="88.667" class="label" style="opacity:1">unstable</text></g><g transform="translate(110, 30)"><rect width="83.796" height="93.333" x="445.912" y="173.333" class="bar maintenance"/><rect width="2" height="93.333" x="444.912" y="173.333" class="bar-join maintenance" style="opacity:1"/><text x="460.912" y="222" class="label" style="opacity:0">maintenance</text></g><g transform="translate(110, 30)"><rect width="269.343" height="93.333" x="176.569" y="173.333" class="bar current"/><rect width="2" height="93.333" x="175.569" y="173.333" class="bar-join current" style="opacity:0"/><text x="191.569" y="222" class="label" style="opacity:1">current</text></g><g transform="translate(110, 30)"><rect width="559.635" height="93.333" x="260.365" y="306.667" class="bar current"/><rect width="2" height="93.333" x="259.365" y="306.667" class="bar-join current" style="opacity:0"/><text x="275.365" y="355.333" class="label" style="opacity:1">current</text></g></g></svg>